<svg id="Layer_1" xmlns="http://www.w3.org/2000/svg" viewBox="0 0 314 314" width="100" height="100"><style>.st0{fill:#47519F;} .st1{fill:#EB5C2C;} .st2{fill:#D5DCF1;} .st3{fill:#FFFFFF;stroke:#2A2F5A;stroke-width:4;stroke-linecap:round;stroke-linejoin:round;stroke-miterlimit:10;} .st4{fill:#47519F;stroke:#2A2F5A;stroke-width:4;stroke-linecap:round;stroke-linejoin:round;stroke-miterlimit:10;} .st5{fill:#EB5C2C;stroke:#2A2F5A;stroke-width:4;stroke-linecap:round;stroke-linejoin:round;stroke-miterlimit:10;} .st6{fill:#FFFFFF;} .st7{fill:#8A94AA;} .st8{opacity:0.14;} .st9{fill:#BBBDBF;} .st10{fill:none;stroke:#E32285;stroke-width:4;stroke-miterlimit:10;} .st11{fill:#2A2F5A;} .st12{fill:#30358C;} .st13{fill:#D2D5E4;} .st14{fill:#EB5C2C;stroke:#2A2F5A;stroke-width:8;stroke-linecap:round;stroke-linejoin:round;stroke-miterlimit:10;} .st15{fill:none;stroke:#2A2F5A;stroke-width:3;stroke-miterlimit:10;} .st16{fill:#EEA65B;} .st17{fill:#1F1F3F;} .st18{opacity:0.5;enable-background:new ;} .st19{fill:#A03A22;} .st20{fill:#EC662B;} .st21{fill:#686868;} .st22{fill:#A89F9F;stroke:#A89F9F;stroke-width:0.6;stroke-miterlimit:10;} .st23{fill:none;stroke:#1F1F40;stroke-width:2;stroke-linecap:round;stroke-linejoin:round;stroke-miterlimit:10;} .st24{fill:#1F1F40;} .st25{fill:#F8FAFD;} .st26{fill:#D0D2D3;} .st27{fill:#9EA5CD;} .st28{fill:none;stroke:#2A2F5A;stroke-width:3;stroke-linecap:round;stroke-linejoin:round;stroke-miterlimit:10;} .st29{fill:#FFFFFF;stroke:#000000;stroke-width:4;stroke-miterlimit:10;} .st30{fill:#47519F;stroke:#000000;stroke-width:4;stroke-miterlimit:10;} .st31{fill:#D5DCF1;stroke:#000000;stroke-width:4;stroke-miterlimit:10;} .st32{fill:#EB5C2C;stroke:#000000;stroke-width:4;stroke-miterlimit:10;} .st33{fill:none;stroke:#000000;stroke-width:4;stroke-miterlimit:10;} .st34{fill:#FFFFFF;stroke:#000000;stroke-width:4;stroke-linecap:round;stroke-linejoin:round;stroke-miterlimit:10;} .st35{fill:none;stroke:#2A2F5A;stroke-width:4;stroke-linecap:round;stroke-linejoin:round;stroke-miterlimit:10;} .st36{fill:none;} .st37{fill:none;stroke:#2A2F5A;stroke-width:5.6;stroke-linecap:round;stroke-linejoin:round;stroke-miterlimit:10;} .st38{fill:none;stroke:#2A2F5A;stroke-width:6;stroke-linecap:round;stroke-linejoin:round;stroke-miterlimit:10;} .st39{fill:none;stroke:#2A2F5A;stroke-width:5;stroke-linecap:round;stroke-linejoin:round;stroke-miterlimit:10;} .st40{fill:none;stroke:#2A2F5A;stroke-width:10;stroke-linecap:round;stroke-linejoin:round;stroke-miterlimit:10;} .st41{fill:#47519F;stroke:#2A2F5A;stroke-width:4;stroke-miterlimit:10;} .st42{fill:#B1A5A3;stroke:#2A2F5A;stroke-width:4;stroke-linecap:round;stroke-linejoin:round;stroke-miterlimit:10;} .st43{fill:#322C83;} .st44{opacity:0.59;} .st45{clip-path:url(#XMLID_4231_);} .st46{fill:#B1A5A3;} .st47{fill:#E94F1C;} .st48{fill:#13110C;} .st49{fill:#4A4797;} .st50{fill:none;stroke:#13110C;stroke-linecap:round;stroke-linejoin:round;stroke-miterlimit:10;} .st51{clip-path:url(#XMLID_4232_);} .st52{clip-path:url(#XMLID_4233_);} .st53{fill:#1E1F40;} .st54{fill:#FFFFFF;stroke:#13110C;stroke-linecap:round;stroke-linejoin:round;stroke-miterlimit:10;} .st55{fill:none;stroke:#2A2F5A;stroke-width:3.5;stroke-linecap:round;stroke-linejoin:round;stroke-miterlimit:10;} .st56{fill:#D5DCF1;stroke:#2A2F5A;stroke-width:4;stroke-linecap:round;stroke-linejoin:round;stroke-miterlimit:10;}</style><g id="XMLID_738_"><circle class="st2" cx="156.5" cy="147.3" r="120.4"/><g id="XMLID_803_"><path id="XMLID_861_" class="st2" d="M216.6 203l-16.1-1.7-7.5-18c-1.3 1.9-2.7 3.8-4.3 5.4l-3.3 2.9-1.3 16.2c-.1.8-.2 1.7-.3 2.5-.6 5.1-2 10.1-4.1 14.9l-7.8 11-13.8-3.4c-3.1-.6-6.3-.5-9.3.3l-11.3 3.1-10-17c-3.8-6.5-6.2-13.8-6.9-21.3l-.7-7.3c-.4-.4-.8-.7-1.1-1.1-2.2-2.3-4-4.9-5.4-7.8.5 2.2-9.1 21.2-9.1 21.2l-9.5 1.5c-12.9 0-27 4.8-30.7 15.7L76 236.3l21.6 17.3 36.4 14 37.3 1.4s46.6-17.9 48-18.8c1.2-.7 25.1-22.3 31.3-27.9-4.5-11.2-21.9-18.6-34-19.3z"/><path id="XMLID_875_" class="st2" d="M252.1 221s-.5.5-1.5 1.3c0 .1.1.2.1.3l1.4-1.6z"/></g><path id="XMLID_815_" class="st1" d="M219.6 137l-.6-9.1c0-.7-.1-1.3-.3-1.9l-1.6-5.1c-.9-2.7-3.9-4-6.5-2.8l-7.1 3.3-1-15.6c.2-3.7-.5-9.1-1.3-13.8-2.1-12.4-9.3-23.5-20.1-29.9-23.9-14.2-60.2-8.5-71.7 18.6l-2.7 6.2c-3 7.1-5 14.6-5.9 22.3l-1.6 13.2-2.5-2.5c-2-2-5.2-1.6-6.7.8-1.7 2.8-2.7 6-2.7 9.3v7.7c0 7.4 2.6 14.6 7.3 20.3l1.8 2.1c3.6 3.6 9.7 1.9 11-3l4 18.6c1.2 5.2 3.8 10 7.5 13.8l1.1 1.1.7 7.3c.7 7.5 3 14.8 6.9 21.3l10 17 11.3-3.1c3-.8 6.2-.9 9.3-.3l13.8 3.4 7.8-11c2.1-4.7 3.5-9.7 4.1-14.9.1-.8.2-1.7.3-2.5l1.3-16.2 3.3-2.9c4.1-4.3 7.7-10.2 8.9-15.7l3-13.4c4.8 3.2 11.3 1.6 14.1-3.5l.8-1.5c3-5.3 4.4-11.5 4-17.6z"/><path id="XMLID_3594_" class="st11" d="M153.3 211.3c-8 0-16-2.8-22.5-8.5l-2.6-2.3c-1-.8-2-1.7-3-2.6-2.6-2.2-5.3-4.5-7.8-7-3.9-4-6.7-9.1-8-14.7l-3-14c-.9.7-2 1.3-3.1 1.6-3 .8-6.1 0-8.3-2.2l-.1-.1-1.8-2.1c-5-6.1-7.8-13.7-7.8-21.6V130c0-3.7 1-7.3 3-10.4 1-1.6 2.7-2.7 4.6-2.9 1.7-.2 3.4.3 4.7 1.4l1.1-9.2c.9-7.9 3-15.5 6.1-22.8l2.7-6.2c5-11.6 14.8-20.4 27.7-24.6 15.3-5 33.2-3 46.9 5.1 11.2 6.6 18.8 18 21.1 31.3 1 6.1 1.5 10.9 1.3 14.1l.8 12.5 4.4-2.1c1.7-.8 3.8-.9 5.5-.1 1.8.8 3.1 2.3 3.7 4.1l1.6 5.1c.3.8.4 1.6.4 2.5l.6 9.1c.4 6.5-1 13-4.2 18.8l-.8 1.5c-1.6 2.9-4.4 5-7.6 5.8-2.3.6-4.7.4-6.9-.4l-2.4 10.9c-1.2 5.5-4.7 11.7-9.4 16.6l-.1.1-12.3 10.7c-6.7 6.9-15.6 10.4-24.5 10.4zm-46-56.1c1 0 1.8.7 2 1.6l4 18.6c1.2 4.9 3.6 9.3 7 12.8 2.3 2.4 5 4.6 7.5 6.8 1.1.9 2.1 1.8 3.1 2.6l2.6 2.3c12.1 10.6 30.3 9.8 41.5-1.8l.1-.1 12.3-10.7c4.1-4.4 7.3-10 8.4-14.7l3-13.4c.1-.6.6-1.2 1.2-1.4.6-.2 1.3-.2 1.8.2 1.9 1.2 4.1 1.6 6.2 1.1 2.2-.5 3.9-1.9 5-3.9l.8-1.5c2.8-5.1 4.1-10.8 3.7-16.6l-.5-9.1v-.1c0-.4-.1-.9-.2-1.3l-1.6-5.1c-.2-.8-.8-1.3-1.5-1.7-.7-.3-1.5-.3-2.2 0l-7.1 3.3c-.6.3-1.3.2-1.9-.1-.6-.3-.9-.9-1-1.6l-1-15.6v-.2c.1-2.9-.3-7.5-1.3-13.4-2.1-12.1-9-22.5-19.2-28.6-12.7-7.5-29.4-9.3-43.6-4.7-11.8 3.8-20.8 11.8-25.3 22.4l-2.7 6.2c-3 6.9-4.9 14.2-5.8 21.7l-1.6 13.2c-.1.8-.6 1.4-1.3 1.7-.7.3-1.5.1-2.1-.5l-2.5-2.5c-.5-.5-1.2-.7-1.9-.7-.7.1-1.3.5-1.7 1.1-1.5 2.5-2.4 5.3-2.4 8.3v7.7c0 6.9 2.4 13.7 6.9 19.1l1.7 2c1.2 1.1 2.8 1.5 4.4 1.1 1.6-.4 2.8-1.7 3.2-3.3.3-.6 1.1-1.2 2-1.2z"/><path id="XMLID_3587_" class="st6" d="M183.4 107c-16.6-2.2-27 9.1-26.1 12 .7 2.2 2.7 3.7 5 3.8.7.1 1.4 0 2.1-.2.1 0 6.8-2.9 16.4-1.8 1.7.2 5.4 3.4 11 3.4 1.8 0 5.1-1.1 5.5-5.1.5-5.4-3.2.8-8.3-7.8-2-3.5-3.6-4.1-5.6-4.3z"/><path id="XMLID_1259_" class="st6" d="M122.1 107.1c16.5-2.5 27.2 8.6 26.3 11.5-.7 2.2-2.7 3.7-4.9 3.9-.7.1-1.4 0-2.1-.2-.1 0-6.8-2.8-16.4-1.5-1.7.2-5.3 3.5-11 3.6-1.8 0-5.2-1-5.6-5-.6-5.4 3.2.8 8.2-7.9 2-3.5 3.5-4.1 5.5-4.4z"/><path id="XMLID_1372_" class="st11" d="M114 126.4c-3.3 0-7.1-2.1-7.5-6.8-.3-3.1.6-4.5 3.3-4.9 1.2-.2 2.9-.4 5.1-4.3 2.3-3.9 4.3-5 6.9-5.4 13.4-2 22.9 4.4 26.4 8.4 1.3 1.5 2.7 3.7 2.1 5.6-.9 2.9-3.5 5-6.6 5.3-1 .1-1.9 0-2.9-.2-.1 0-.2 0-.2-.1-1.1-.4-7.1-2.5-15.4-1.3-.2 0-1 .4-1.6.7-2.1 1.3-5.3 3-9.6 3zm-3.6-7.7v.5c.3 3.1 3 3.2 3.6 3.2 3.4 0 5.9-1.4 7.8-2.4 1.1-.6 2-1.1 2.9-1.2 9.1-1.2 15.8 1 17.3 1.5.4.1.9.1 1.3.1 1.5-.2 2.7-1.1 3.2-2.4-.1-.6-1.1-2.3-3.6-4.2-2.6-2-9.7-6.5-20.4-4.9-1.2.2-2.3.3-4.1 3.4-3.2 5.7-6.3 6.2-8 6.4z"/><path class="st11" d="M179.6 132.6c0 1.9-2.6 1.1-5.8 1.1-3.2 0-5.8.8-5.8-1.1 0-1.9 2.6-3.4 5.8-3.4 3.2 0 5.8 1.5 5.8 3.4zM137.9 132.6c0 1.9-2.6 1.1-5.8 1.1-3.2 0-5.8.8-5.8-1.1 0-1.9 2.6-3.4 5.8-3.4 3.1 0 5.8 1.5 5.8 3.4z"/><path id="XMLID_1350_" class="st11" d="M99.8 151.8c-.4 0-.9-.1-1.2-.4-3.6-2.8-5.3-9.7-5.1-20.3v-.5c0-1.1.9-2 2-2s2 .9 2 2v.5c-.2 12.7 2.4 16.2 3.6 17.1.9.7 1 1.9.3 2.8-.4.6-1 .8-1.6.8z"/><path id="XMLID_1342_" class="st11" d="M210.9 151.1c-.1 0-.3 0-.4-.1-1.1-.3-1.8-1.6-1.5-3 .8-4.7.3-15.4 0-19.2-.1-1.4.7-2.6 1.8-2.7 1.1-.1 2.1.9 2.2 2.3 0 .6 1.1 14.4 0 20.8-.4 1.1-1.2 1.9-2.1 1.9z"/><path id="XMLID_1336_" class="st11" d="M108.4 164.2c-.9 0-1.8-.6-2-1.6-.5-2.5-.5-11.2-.5-12.2 0-1.1.9-2 2-2s2 .9 2 2c0 3.5.1 9.7.4 11.3.2 1.1-.5 2.1-1.5 2.4-.1.1-.3.1-.4.1z"/><path id="XMLID_1278_" class="st11" d="M151.6 159.8h-.4c-2.8-.1-5.3-1.5-6.9-3.7l-1-1.4c-.7-.9-.5-2.1.4-2.8.9-.7 2.1-.5 2.8.4l1 1.4c.9 1.2 2.3 2 3.9 2.1 1.6.1 3-.6 4-1.7l2.8-3.2c.7-.8 2-.9 2.8-.2.8.7.9 2 .2 2.8l-2.8 3.2c-1.6 2-4.1 3.1-6.8 3.1z"/><path id="XMLID_1262_" class="st11" d="M196.8 140.7c-.2 0-.3 0-.5-.1-1.1-.3-1.7-1.4-1.5-2.4.1-.4-.3-1.8-1.5-3-.7-.7-2-1.7-3.7-1.3-1.1.3-2.2-.4-2.4-1.5s.4-2.2 1.5-2.4c2.6-.6 5.3.2 7.5 2.3 2 2 3.1 4.8 2.5 6.8-.1 1-1 1.6-1.9 1.6z"/><path id="XMLID_1261_" class="st11" d="M109.7 140.7c-.9 0-1.7-.6-1.9-1.5-.5-2 .5-4.8 2.5-6.8 2.1-2.1 4.8-3 7.5-2.3 1.1.3 1.7 1.3 1.5 2.4-.3 1.1-1.4 1.7-2.4 1.5-1.7-.4-3 .6-3.7 1.3-1.2 1.2-1.6 2.6-1.5 3 .3 1.1-.4 2.2-1.5 2.4-.2-.1-.4 0-.5 0z"/><path id="XMLID_1253_" class="st1" d="M133.2 100.2s9.9-1.3 19.8-1.2c7 .1 14 1.4 17.4 1.8"/><path id="XMLID_1254_" class="st11" d="M170.4 102.8h-.2c-.9-.1-2.1-.3-3.5-.5-3.7-.5-8.7-1.3-13.7-1.3-9.6-.1-19.4 1.2-19.5 1.2-1.1.2-2.1-.6-2.2-1.7-.1-1.1.6-2.1 1.7-2.2.4-.1 10.2-1.3 20.1-1.2 5.3 0 10.4.8 14.2 1.4 1.3.2 2.5.4 3.4.5 1.1.1 1.9 1.1 1.8 2.2-.3.9-1.1 1.6-2.1 1.6z"/><path id="XMLID_1211_" class="st1" d="M135.7 91.6s8.6-1.4 17.2-1.3c6.1 0 12.1 1.4 15.1 1.7"/><path id="XMLID_1251_" class="st11" d="M167.9 94h-.2c-.8-.1-1.8-.3-3.1-.5-3.2-.5-7.5-1.2-11.8-1.2-8.3 0-16.8 1.3-16.9 1.3-1.1.2-2.1-.6-2.3-1.7-.2-1.1.6-2.1 1.7-2.3.4-.1 8.9-1.4 17.5-1.4 4.6 0 9.1.8 12.4 1.3 1.1.2 2.1.3 2.9.4 1.1.1 1.9 1.1 1.8 2.2-.1 1.1-1 1.9-2 1.9z"/><path id="XMLID_1195_" class="st1" d="M139.5 84s6.6-1.4 13.1-1.5c4.6 0 9.2 1.2 11.5 1.6"/><path id="XMLID_1202_" class="st11" d="M164.1 86.1h-.3c-.7-.1-1.5-.3-2.4-.4-2.3-.5-5.5-1.1-8.7-1.1h-.1c-6.3 0-12.6 1.4-12.7 1.4-1.1.2-2.1-.4-2.4-1.5s.4-2.1 1.5-2.4c.3-.1 6.9-1.5 13.5-1.5 3.6 0 7.1.7 9.6 1.2.9.2 1.6.3 2.2.4 1.1.2 1.9 1.2 1.7 2.3-.1.9-.9 1.6-1.9 1.6z"/><path id="XMLID_934_" class="st2" d="M171.4 255.1l9.6-9c4.9-4.6 9.1-9.8 12.4-15.5 5.3-9.1 7.5-15.8 7.1-29.3"/><g id="XMLID_736_"><path id="XMLID_725_" class="st11" d="M253.5 219.6c-.6-.6-1.4-.7-2.1-.4-6-10.4-22-17.4-34.5-18.2l-14.9-1.5-7-16.9c-.2-.4-.4-.7-.8-.9-.7 1.2-1.6 2.5-2.4 3.6l6.8 16.5c.4 13.1-1.9 19.5-6.8 27.9-3.3 5.6-7.3 10.6-12.1 15.1l-9.6 9c-.8.8-.9 2-.1 2.8.4.4.9.6 1.5.6.5 0 1-.2 1.4-.5l9.6-9c5-4.7 9.3-10.1 12.8-16 5-8.5 7.5-15.3 7.4-28.1l13.9 1.4c14.6.9 27.6 9.1 31.7 16.9-12 10.8-28.2 25.4-29.9 26.7-2.2 1-29.2 11.5-47.4 18.5l-36.6-1.3-35.8-13.7-21.1-17L66.4 220c3.9-9.2 16.9-13.4 28.4-13.4h.3l7-1.1c-.1 3.3.2 9.2 2.8 16.2 3.4 9.6 11.8 22.9 32.1 32.4.3.1.6.2.8.2.8 0 1.5-.4 1.8-1.2.5-1 0-2.2-1-2.7-34.7-16.2-32.8-43.5-32.4-46.8 5.5-10.9 7.7-16.3 8.6-19.2-1.1-1.8-1.9-3.6-2.6-5.6-.9 1.7-.9 2.7-.8 3.2-.2 1.9-4.4 11.1-8.4 19.2l-8.3 1.3c-12.3 0-28.1 4.5-32.4 17-.2.6-.1 1.3.3 1.8l11.9 16.2c.1.1.2.3.4.4l21.6 17.3c.2.1.3.2.5.3l36.4 14c.2.1.4.1.6.1l37.3 1.4h.1c.2 0 .5 0 .7-.1 11-4.2 46.9-18.1 48.3-18.9 1.3-.8 20.3-17.9 30.7-27.3.5-.1 1-.3 1.3-.7l1.3-1.7c.7-.9.6-2-.2-2.7z"/><g id="XMLID_604_"><path id="XMLID_724_" class="st11" d="M127.7 215.4c-2.8-5.5-4.6-11.6-5.1-17.8l-.5-5c-1.1-1-2.3-2.1-3.3-3.1-.4-.4-.7-.8-1.1-1.2l.9 9.8c.7 7.8 3.2 15.4 7.1 22.2l4.3 7.3c-1.2-4-2-8.1-2.3-12.2z"/><path id="XMLID_799_" class="st11" d="M187 190.3l-3.7 3.2-1.2 14.1c-.1.8-.2 1.6-.2 2.5-.6 4.7-1.9 9.5-3.9 14.1l-1.2 1.6-1.7 9.4 6.3-8.9c.1-.1.1-.2.2-.3 2.2-5 3.7-10.2 4.3-15.4.1-.9.2-1.7.3-2.6l1.3-16.2c0-.6-.2-1.1-.5-1.5z"/></g></g><path id="XMLID_804_" class="st11" d="M201.3 160.2c3.2 0 3.2-5 0-5s-3.2 5 0 5z"/><path id="XMLID_848_" class="st11" d="M195.9 114.4c-1.2-.1-2.9-.3-5.2-4.2-2.3-3.9-4.4-4.9-7-5.2-13.4-1.8-22.8 4.8-26.3 8.9-1.3 1.5-2.6 3.7-2 5.6 1 2.9 3.6 4.9 6.7 5.2 1 .1 1.9 0 2.9-.3.1 0 .2-.1.2-.1 1.1-.4 7.1-2.6 15.4-1.6.3 0 1 .4 1.6.7 2.1 1.1 5.3 2.7 9.5 2.7h.2c3.3 0 7-2.2 7.4-6.9.3-3.1-.7-4.5-3.4-4.8zm-.5 4.5c-.3 3.1-3 3.3-3.5 3.3h-.2c-3.3 0-5.8-1.3-7.7-2.2-1.1-.6-2-1-2.9-1.1-1.7-.2-3.2-.3-4.7-.3-6.6 0-11.3 1.7-12.5 2.1-.4.1-.9.2-1.3.1-1.5-.1-2.7-1-3.2-2.3.1-.6 1.1-2.3 3.5-4.3 2.5-2.1 9.6-6.7 20.3-5.2 1 .1 1.9.3 3.2 2-1 0-2-.1-3.2-.1h-1.3c-1.1 0-2 .9-2 2s.9 2 2 2h1.4c2.1 0 5.6.1 6.4.5 2.4 2.5 4.5 2.8 5.8 2.9-.1.2-.1.4-.1.6z"/><path id="XMLID_928_" class="st1" d="M180.4 164.7s3.1 3.3 3.1 12.8"/><g id="XMLID_801_"><path id="XMLID_802_" class="st11" d="M192.5 160.8c-.8-.8-2-.8-2.8 0l-.7.7c-1.9 1.9-3.5 4.1-4.7 6.5-1-3.1-2.1-4.5-2.4-4.7-.7-.8-2-.8-2.8-.1-.8.7-.9 2-.2 2.8 0 0 2.6 3.1 2.6 11.4-.1.8-.1 1.6-.1 2.4 0 1.1.9 2 2 2s2-.9 2-2c0-5.7 2.3-11.4 6.4-15.4l.7-.7c.8-.8.8-2.1 0-2.9z"/><path id="XMLID_806_" class="st11" d="M116 161.1c-.8-.8-2.1-.8-2.8 0-.8.8-.8 2.1 0 2.8l.7.7c4.1 4 6.4 9.7 6.4 15.4 0 1.1.9 2 2 2s2-.9 2-2c0-6.8-2.8-13.5-7.6-18.2l-.7-.7z"/></g><path id="XMLID_740_" class="st6" d="M178.3 200.5l-2-17.2c1.3-7.6-1.7-15.3-7.7-19.8-2.8-2.1-6.7-2-9.4.3-2.4 2-5.2 4.1-7.2 4.1-2.1 0-4.8-1.4-7.1-2.9-3.6-2.4-8.4-1.5-11 2l-1.7 2.2c-3.1 5.5-4.6 19.5-3.2 25.6l-1.1 11.8c-.9 9.3.7 18.6 4.6 27.1 2.5 5.4 4.5 11 6.1 16.7l4.3 14.3L157 269l12.7-4.3 8-43.1c1.2-7 1.5-14.1.6-21.1z"/><path id="XMLID_829_" class="st11" d="M157 272.6c-69.1 0-125.4-56.2-125.4-125.4S87.9 21.9 157 21.9s125.4 56.2 125.4 125.4S226.1 272.6 157 272.6zm0-240.7c-63.6 0-115.4 51.8-115.4 115.4S93.4 262.6 157 262.6s115.4-51.8 115.4-115.4S220.6 31.9 157 31.9z"/><path id="XMLID_828_" class="st11" d="M180.3 200.3l-2-16.9c1.3-8.2-2-16.6-8.5-21.5-3.6-2.7-8.5-2.5-11.9.4-4 3.4-5.6 3.6-5.9 3.6-.8 0-2.6-.3-6.1-2.6-4.5-2.9-10.4-1.9-13.7 2.4l-1.7 2.2c-.1.1-.1.2-.2.2-3.3 6-4.8 20.1-3.5 26.7l-1.1 11.5c-.9 9.6.8 19.3 4.8 28.1 2.2 4.9 4.2 10.2 6 16.4l4.3 14.3c.2.6.7 1.1 1.3 1.3l14.2 4.3c.2.1.4.1.6.1.2 0 .4 0 .6-.1l12.7-4.3c.7-.2 1.2-.8 1.3-1.5l8-43.1c1.4-7 1.7-14.3.8-21.5zm-28.5-27.6c.7.5 1.4 1 2.1 1.3-1.4.2-2.7.3-4.1.2.1-.1.2-.1.4-.2.5-.3 1.1-.8 1.6-1.3zm23.9 48.5l-7.8 42-10.9 3.7-12.5-3.8-4-13.3c-1.9-6.3-3.9-11.9-6.2-16.9-3.7-8.1-5.3-17.1-4.5-26l1.1-11.8v-.6c-1.2-5.6.2-18.9 3-24.1l1.6-2.1c2-2.6 5.6-3.3 8.4-1.5 2.1 1.4 3.9 2.3 5.5 2.8-.3.5-.7.9-1.2 1.2-1.6 1-3.9 1-5.5.8.2-.5.2-1.1-.1-1.6-.5-1-1.7-1.4-2.7-.8-.7.3-6.4 3.8-6.1 17 0 1.1.9 2 2 2s2-.9 2-2c-.1-5.6 1-9 2.1-11 3.4 2.3 7.4 3.4 11.3 3.4 4.2 0 8.5-1.3 12.1-3.9.6-.3 1-.7 1.3-1 1.7 2.9 4.7 9.3 3 15.9-.3 1.1.4 2.2 1.5 2.4.2 0 .3.1.5.1.9 0 1.7-.6 1.9-1.5 2.6-10.7-4.4-20.4-4.7-20.8-.6-.9-1.9-1.1-2.8-.4-.2.1-.3.3-.4.4-.5 0-.9.2-1.3.5l-.3.3c-.3.3-.6.5-1 .8-1.2.6-3.4.9-6.8-1.6 1.8-.6 3.9-2 6.5-4.2 1.9-1.7 4.8-1.8 6.9-.2 5.4 4 8.1 11 6.9 17.9v.6l2 17.2c.7 6.5.4 13.3-.8 20.1z"/></g></svg>